<?xml version="1.0" encoding="UTF-8" standalone="no"?>
<!DOCTYPE svg PUBLIC "-//W3C//DTD SVG 1.1//EN" "http://www.w3.org/Graphics/SVG/1.1/DTD/svg11.dtd">
<svg width="100%" height="100%" viewBox="0 0 599 599" version="1.1" xmlns="http://www.w3.org/2000/svg" xmlns:xlink="http://www.w3.org/1999/xlink" xml:space="preserve" xmlns:serif="http://www.serif.com/" style="fill-rule:evenodd;clip-rule:evenodd;stroke-linejoin:round;stroke-miterlimit:2;">
    <g transform="matrix(3.76116,0,0,4.74663,-6.53699e-13,0)">
        <rect id="Artboard1" x="0" y="0" width="159.076" height="126" style="fill:none;"/>
        <g id="Artboard11" serif:id="Artboard1">
            <g transform="matrix(0.436797,-0.346112,0.462702,0.366638,15.6493,67.4297)">
                <g transform="matrix(0.43041,0,0,0.406314,-929.112,-888.595)">
                    <path d="M2309.55,2279.79C2309.9,2278.74 2310.96,2278.74 2311.31,2279.79L2357.1,2403.24C2357.45,2404.12 2357.27,2405 2355.86,2405L2340.54,2405C2339.14,2405 2338.78,2404.65 2338.25,2403.24L2310.38,2325.05L2292.89,2373.38C2292.54,2374.61 2292.54,2375.14 2293.6,2375.14L2313.16,2375.14C2314.21,2375.14 2314.74,2375.67 2315.09,2376.55L2319.5,2389.05C2320.02,2390.28 2319.5,2390.99 2318.09,2390.99L2288.49,2390.99C2287.26,2390.99 2286.73,2391.34 2286.2,2392.75L2282.43,2403.24C2281.9,2404.82 2281.55,2405 2280.14,2405L2265.35,2405C2263.76,2405 2263.76,2404.12 2264.12,2403.24L2309.55,2279.79Z" style="fill:rgb(46,46,46);"/>
                </g>
                <g transform="matrix(0.43041,4.9759e-17,5.27101e-17,-0.406314,-900.814,1014.58)">
                    <path d="M2309.55,2279.79C2309.9,2278.74 2310.96,2278.74 2311.31,2279.79L2357.1,2403.24C2357.45,2404.12 2357.27,2405 2355.86,2405L2340.54,2405C2339.14,2405 2338.78,2404.65 2338.25,2403.24L2310.38,2325.05L2292.89,2373.38C2292.54,2374.61 2292.54,2375.14 2293.6,2375.14L2313.16,2375.14C2314.21,2375.14 2314.74,2375.67 2315.09,2376.55L2319.5,2389.05C2320.02,2390.28 2319.5,2390.99 2318.09,2390.99L2288.49,2390.99C2287.26,2390.99 2286.73,2391.34 2286.2,2392.75L2282.43,2403.24C2281.9,2404.82 2281.55,2405 2280.14,2405L2265.35,2405C2263.76,2405 2263.76,2404.12 2264.12,2403.24L2309.55,2279.79Z" style="fill:rgb(46,46,46);"/>
                </g>
            </g>
        </g>
    </g>
</svg>
